<svg width="300" height="280" viewBox="0 0 300 280" fill="none" xmlns="http://www.w3.org/2000/svg">
<g opacity="0.48">
<path opacity="0.15" d="M215.722 256.401C220.233 295.039 176.13 331.937 117.217 338.814C58.3032 345.691 6.88786 319.944 2.37739 281.306C-2.13309 242.668 41.9693 205.771 100.883 198.893C159.796 192.016 211.212 217.763 215.722 256.401ZM61.6134 274.391C63.6192 291.573 86.4831 303.023 112.681 299.964C138.88 296.906 158.492 280.498 156.486 263.316C154.48 246.134 131.616 234.684 105.418 237.743C79.2196 240.801 59.6077 257.209 61.6134 274.391Z" fill="#002955"/>
<path opacity="0.15" d="M18.8917 67.9381C57.7909 67.6285 89.7076 115.459 90.1796 174.771C90.6516 234.083 59.5001 282.415 20.6009 282.725C-18.2983 283.034 -50.215 235.204 -50.687 175.892C-51.159 116.58 -20.0075 68.2476 18.8917 67.9381ZM20.1264 223.088C37.4245 222.951 51.2773 201.458 51.0674 175.082C50.8575 148.707 36.6644 127.437 19.3663 127.574C2.06811 127.712 -11.7847 149.205 -11.5748 175.581C-11.3649 201.956 2.8282 223.226 20.1264 223.088Z" fill="#002955"/>
</g>
</svg>
