<svg xmlns="http://www.w3.org/2000/svg" width="37" height="36" viewBox="0 0 37 36" fill="none">
  <path d="M31.9536 11.4488C31.8215 5.10399 26.6039 0.000976562 20.186 0.000976562C15.2318 0.000976562 10.9929 3.04215 9.25625 7.34772C8.97978 7.31936 8.69932 7.30454 8.41532 7.30454C3.94454 7.30454 0.320312 10.9052 0.320312 15.3471C0.320312 19.7887 3.94454 23.3895 8.41532 23.3895H20.186H30.5956C33.957 23.3895 36.682 20.6823 36.682 17.3427C36.6819 14.4671 34.661 12.0621 31.9536 11.4488Z" fill="#FF6F00"/>
  <path d="M27.0438 2.19039C26.0696 1.93025 25.045 1.7916 23.9884 1.7916C19.0348 1.7916 14.7958 4.83285 13.0588 9.13855C12.7821 9.11012 12.502 9.09537 12.2184 9.09537C7.74732 9.09537 4.12351 12.6968 4.12351 17.1377C4.12351 19.5893 5.227 21.7842 6.96852 23.26C3.18819 22.583 0.320312 19.2974 0.320312 15.3461C0.320312 10.9041 3.94518 7.30384 8.41511 7.30384C8.69982 7.30384 8.97999 7.31859 9.25675 7.34703C10.9926 3.04132 15.2316 0 20.1863 0C22.7455 0 25.1136 0.811201 27.0438 2.19039Z" fill="#DDEAFB"/>
  <path d="M34.3751 21.1167V34.0625C34.3751 35.1333 33.5019 36.0009 32.4246 36.0009H16.3978C15.4771 36.0009 14.7056 35.3671 14.5006 34.5146L14.4928 33.4064L14.4473 26.8069V13.7828C14.4473 12.7121 15.3205 11.8445 16.3978 11.8445H25.0423C25.8192 11.8445 28.3352 13.9757 30.5592 16.2203C32.5885 18.269 34.3751 20.412 34.3751 21.1167Z" fill="#DDEAFB"/>
  <path d="M34.3747 21.1161V25.8584C34.3747 25.853 34.3743 25.8477 34.3743 25.8419C34.2275 20.023 29.4566 19.7537 27.8965 18.2037L30.5588 16.2197C32.5881 18.2684 34.3747 20.4113 34.3747 21.1161Z" fill="#CBE2FF"/>
  <path d="M25.0409 11.8438H20.2676C20.273 11.8438 20.2784 11.8442 20.2842 11.8442C26.1411 11.9901 26.4122 16.7299 27.9723 18.2799L29.9692 15.6349C27.9072 13.6188 25.7502 11.8438 25.0409 11.8438Z" fill="#CBE2FF"/>
  <path d="M34.3752 21.1163V21.9362C34.3752 20.2101 32.9663 18.8103 31.2289 18.8103H29.314C28.2367 18.8103 27.3631 17.9423 27.3631 16.8721V14.9696C27.3631 13.2435 25.9542 11.8438 24.2168 11.8438H25.042C26.528 11.8438 27.9535 12.4303 29.0042 13.4742L32.7341 17.1799C33.7847 18.2237 34.3752 19.64 34.3752 21.1163Z" fill="#BED8FB"/>
  <path d="M32.1193 24.2109H16.701C16.398 24.2109 16.1523 23.9668 16.1523 23.6657C16.1523 23.3647 16.398 23.1206 16.701 23.1206H32.1193C32.4224 23.1206 32.668 23.3647 32.668 23.6657C32.668 23.9667 32.4223 24.2109 32.1193 24.2109Z" fill="#617881"/>
  <path d="M32.1193 26.4518H16.701C16.398 26.4518 16.1523 26.2078 16.1523 25.9067C16.1523 25.6056 16.398 25.3616 16.701 25.3616H32.1193C32.4224 25.3616 32.668 25.6056 32.668 25.9067C32.668 26.2077 32.4223 26.4518 32.1193 26.4518Z" fill="#617881"/>
  <path d="M32.1193 28.693H16.701C16.398 28.693 16.1523 28.449 16.1523 28.1479C16.1523 27.8468 16.398 27.6028 16.701 27.6028H32.1193C32.4224 27.6028 32.668 27.8468 32.668 28.1479C32.668 28.449 32.4223 28.693 32.1193 28.693Z" fill="#617881"/>
  <path d="M22.3649 30.934H16.701C16.398 30.934 16.1523 30.6899 16.1523 30.3889C16.1523 30.0878 16.398 29.8438 16.701 29.8438H22.3649C22.668 29.8438 22.9136 30.0878 22.9136 30.3889C22.9137 30.6899 22.668 30.934 22.3649 30.934Z" fill="#617881"/>
  <path d="M22.3649 17.9946H16.701C16.398 17.9946 16.1523 17.7505 16.1523 17.4494C16.1523 17.1484 16.398 16.9043 16.701 16.9043H22.3649C22.668 16.9043 22.9136 17.1484 22.9136 17.4494C22.9136 17.7505 22.668 17.9946 22.3649 17.9946Z" fill="#617881"/>
</svg>