<svg width="141" height="133" viewBox="0 0 141 133" fill="none" xmlns="http://www.w3.org/2000/svg">
<ellipse cx="70.5" cy="66.5" rx="70.5" ry="66.5" fill="#EDDFCB"/>
<path d="M55.8125 55.4357C55.8125 51.1425 57.518 47.0252 60.5537 43.9894C63.5895 40.9537 67.7068 39.2482 72 39.2482C76.2932 39.2482 80.4105 40.9537 83.4463 43.9894C86.482 47.0252 88.1875 51.1425 88.1875 55.4357C88.1875 56.049 88.4311 56.6372 88.8648 57.0709C89.2985 57.5046 89.8867 57.7482 90.5 57.7482C91.1133 57.7482 91.7015 57.5046 92.1352 57.0709C92.5689 56.6372 92.8125 56.049 92.8125 55.4357C92.8122 51.8863 91.9042 48.396 90.1747 45.2965C88.4452 42.1969 85.9518 39.5912 82.9314 37.7269C79.911 35.8627 76.4641 34.8018 72.9181 34.6453C69.3722 34.4887 65.8451 35.2416 62.6722 36.8323C59.4993 38.4231 56.7859 40.7989 54.7899 43.7339C52.794 46.669 51.5818 50.0657 51.2687 53.6012C50.9555 57.1368 51.5517 60.6937 53.0007 63.9338C54.4497 67.174 56.7032 69.9897 59.5472 72.1135C61.9859 73.9352 64.7945 75.1998 67.7751 75.8181C68.1891 76.7468 68.8976 77.5131 69.791 77.9986C70.6844 78.4841 71.7129 78.6616 72.7174 78.5037C73.7218 78.3459 74.6463 77.8614 75.3477 77.1253C76.0491 76.3891 76.4884 75.4424 76.5975 74.4314C76.7067 73.4205 76.4797 72.4018 75.9517 71.5329C75.4236 70.664 74.6239 69.9933 73.6763 69.6246C72.7287 69.2559 71.6861 69.2098 70.7096 69.4933C69.7331 69.7768 68.8773 70.3742 68.2746 71.1931C64.7262 70.3539 61.5652 68.3414 59.3033 65.4815C57.0415 62.6216 55.8115 59.0819 55.8125 55.4357ZM58.125 55.4357C58.1259 52.8832 58.8309 50.3803 60.1625 48.2026C61.4941 46.0249 63.4006 44.2567 65.6722 43.0926C67.9439 41.9285 70.4927 41.4136 73.0381 41.6045C75.5835 41.7955 78.0269 42.6849 80.0994 44.175C82.1719 45.665 83.7932 47.6979 84.785 50.0499C85.7767 52.4019 86.1004 54.9819 85.7204 57.5061C85.3404 60.0302 84.2715 62.4006 82.6313 64.3564C80.9911 66.3122 78.8432 67.7777 76.4238 68.5915C75.1796 67.5617 73.6151 66.9982 72 66.9982C70.3188 66.9982 68.7787 67.5971 67.5762 68.5915C64.8214 67.6648 62.4272 65.8965 60.7314 63.536C59.0357 61.1756 58.124 58.3422 58.125 55.4357ZM72 46.1857C69.5467 46.1857 67.194 47.1603 65.4593 48.895C63.7246 50.6297 62.75 52.9825 62.75 55.4357C62.75 57.889 63.7246 60.2417 65.4593 61.9764C67.194 63.7112 69.5467 64.6857 72 64.6857C74.4533 64.6857 76.806 63.7112 78.5407 61.9764C80.2754 60.2417 81.25 57.889 81.25 55.4357C81.25 52.9825 80.2754 50.6297 78.5407 48.895C76.806 47.1603 74.4533 46.1857 72 46.1857ZM52.3438 71.6232H55.4864C57.3454 73.5224 59.5178 75.087 61.9082 76.2482H52.3438C51.4238 76.2482 50.5415 76.6137 49.891 77.2642C49.2405 77.9147 48.875 78.797 48.875 79.717V80.8732C48.875 84.2795 51.0487 87.6928 55.2552 90.3683C59.4339 93.0277 65.3469 94.7482 71.9977 94.7482C78.6531 94.7482 84.5661 93.0277 88.7448 90.3683C92.9536 87.6951 95.125 84.2772 95.125 80.8732V79.717C95.125 78.797 94.7595 77.9147 94.109 77.2642C93.4585 76.6137 92.5762 76.2482 91.6562 76.2482H78.5444C79.0734 74.7519 79.0734 73.1195 78.5444 71.6232H91.6562C93.8028 71.6232 95.8615 72.4759 97.3794 73.9938C98.8973 75.5117 99.75 77.5704 99.75 79.717V80.8732C99.75 86.407 96.2281 91.0875 91.2284 94.2695C86.2011 97.47 79.3954 99.3732 72 99.3732C64.6046 99.3732 57.8012 97.47 52.7716 94.2695C47.7719 91.0875 44.25 86.407 44.25 80.8732V79.717C44.25 77.5704 45.1027 75.5117 46.6206 73.9938C48.1385 72.4759 50.1972 71.6232 52.3438 71.6232Z" fill="#613908"/>
</svg>
